<?xml version="1.0" encoding="UTF-8"?> <svg xmlns="http://www.w3.org/2000/svg" width="33" height="33" viewBox="0 0 33 33" fill="none"><g clip-path="url(#clip0_1100_277)"><path d="M16.5 33C23.3351 33 28.875 28.875 28.875 21.6562C28.875 18.5625 27.8438 13.4062 23.7188 9.28125C24.2344 12.375 21.1406 13.4062 21.1406 13.4062C22.6875 8.25 18.5625 1.03125 12.375 0C13.1113 4.125 13.4062 8.25 8.25 12.375C5.67188 14.4375 4.125 18.0036 4.125 21.6562C4.125 28.875 9.66488 33 16.5 33ZM16.5 30.9375C13.0824 30.9375 10.3125 28.875 10.3125 25.2656C10.3125 23.7188 10.8281 21.1406 12.8906 19.0781C12.6328 20.625 14.4375 21.6562 14.4375 21.6562C13.6641 19.0781 15.4688 14.9531 18.5625 14.4375C18.1933 16.5 18.0469 18.5625 20.625 20.625C21.9141 21.6562 22.6875 23.4382 22.6875 25.2656C22.6875 28.875 19.9176 30.9375 16.5 30.9375Z" fill="#E9BE98"></path></g><defs><clipPath id="clip0_1100_277"><rect width="33" height="33" fill="white"></rect></clipPath></defs></svg> 