<?xml version="1.0" encoding="UTF-8"?> <svg xmlns="http://www.w3.org/2000/svg" width="27" height="31" viewBox="0 0 27 31" fill="none"><path d="M1.82812 18.4167C1.82812 21.819 3.86979 28.625 12.0365 28.625C12.0365 25.2227 9.99479 18.4167 1.82812 18.4167ZM6.20312 9.66667V3.83333L9.84896 6.75L13.4948 2.375L17.1406 6.75L20.7865 3.83333V9.66667C20.7865 12.0977 19.3281 16.9583 13.4948 16.9583C7.66146 16.9583 6.20312 12.0977 6.20312 9.66667ZM25.1615 18.4167C25.1615 21.819 23.1198 28.625 14.9531 28.625C14.9531 25.2227 16.9948 18.4167 25.1615 18.4167Z" fill="#E9BE98"></path><path d="M12.0365 28.625C3.86979 28.625 1.82812 21.819 1.82812 18.4167C9.99479 18.4167 12.0365 25.2227 12.0365 28.625ZM12.0365 28.625H13.4948M13.4948 28.625V16.9583M13.4948 28.625H14.9531M13.4948 16.9583C7.66146 16.9583 6.20313 12.0977 6.20313 9.66667V3.83333L9.84896 6.75L13.4948 2.375L17.1406 6.75L20.7865 3.83333V9.66667C20.7865 12.0977 19.3281 16.9583 13.4948 16.9583ZM14.9531 28.625C23.1198 28.625 25.1615 21.819 25.1615 18.4167C16.9948 18.4167 14.9531 25.2227 14.9531 28.625Z" stroke="#E9BE98" stroke-width="2.91667" stroke-linecap="round" stroke-linejoin="round"></path></svg> 