<?xml version="1.0" encoding="UTF-8"?> <svg xmlns="http://www.w3.org/2000/svg" width="37" height="37" viewBox="0 0 37 37" fill="none"><path d="M18.5 9.25C19.3178 9.25 20.102 8.92515 20.6802 8.34691C21.2585 7.76868 21.5833 6.98442 21.5833 6.16667C21.5833 5.58083 21.4292 5.04125 21.1362 4.57875L18.5 0L15.8637 4.57875C15.5708 5.04125 15.4167 5.58083 15.4167 6.16667C15.4167 7.8625 16.8042 9.25 18.5 9.25ZM25.5917 24.6513L23.9421 23.0017L22.2771 24.6513C20.2729 26.6554 16.7579 26.6708 14.7383 24.6513L13.0887 23.0017L11.4083 24.6513C10.4062 25.6533 9.065 26.2083 7.64667 26.2083C6.52125 26.2083 5.48833 25.8538 4.625 25.2679V32.375C4.625 33.2229 5.31875 33.9167 6.16667 33.9167H30.8333C31.6812 33.9167 32.375 33.2229 32.375 32.375V25.2679C31.5117 25.8538 30.4788 26.2083 29.3533 26.2083C27.935 26.2083 26.5938 25.6533 25.5917 24.6513ZM27.75 13.875H20.0417V10.7917H16.9583V13.875H9.25C6.69083 13.875 4.625 15.9408 4.625 18.5V20.8742C4.625 22.5392 5.98167 23.8958 7.64667 23.8958C8.44833 23.8958 9.21917 23.5875 9.77417 23.0171L13.0733 19.7333L16.3571 23.0171C17.4979 24.1579 19.4867 24.1579 20.6275 23.0171L23.9267 19.7333L27.2104 23.0171C27.7808 23.5875 28.5363 23.8958 29.3379 23.8958C31.0029 23.8958 32.3596 22.5392 32.3596 20.8742V18.5C32.375 15.9408 30.3092 13.875 27.75 13.875Z" fill="#E9BE98"></path></svg> 