<svg width="165" height="165" viewBox="0 0 165 165" fill="none" xmlns="http://www.w3.org/2000/svg">
<mask id="mask0_5847_5076" style="mask-type:luminance" maskUnits="userSpaceOnUse" x="0" y="0" width="165" height="165">
<path d="M82.5 0C128.068 0 165 36.9384 165 82.5C165 128.068 128.062 165 82.5 165C36.9318 165 0 128.062 0 82.5C0 36.9317 36.9384 0 82.5 0Z" fill="white"/>
</mask>
<g mask="url(#mask0_5847_5076)">
<path d="M82.5 -0.00012207C128.068 -0.00012207 165 36.9383 165 82.4999C165 128.068 128.062 165 82.5 165C36.9318 165 0 128.061 0 82.4999C0 36.9316 36.9384 -0.00012207 82.5 -0.00012207Z" fill="white"/>
<path d="M82.3667 -14.1876C41.9298 -14.1876 30.1012 -14.1476 27.8021 -13.9544C19.5055 -13.2613 14.3409 -11.9552 8.7165 -9.15632C4.37825 -7.00386 0.959629 -4.50487 -2.41234 -1.00628C-8.55652 5.37781 -12.2817 13.228 -13.6278 22.5575C-14.2808 27.089 -14.4741 28.0087 -14.5141 51.1526C-14.5274 58.8695 -14.5141 69.0188 -14.5141 82.6332C-14.5141 123.05 -14.4675 134.865 -14.2742 137.165C-13.6011 145.241 -12.335 150.326 -9.65608 155.884C-4.53148 166.526 5.25789 174.509 16.7866 177.495C20.7783 178.521 25.1899 179.088 30.8476 179.361C33.2466 179.467 57.6967 179.541 82.1602 179.541C106.624 179.541 131.087 179.514 133.426 179.394C139.983 179.088 143.789 178.574 148 177.488C159.609 174.496 169.218 166.626 174.443 155.837C177.075 150.413 178.408 145.135 179.008 137.484C179.141 135.818 179.194 109.203 179.194 82.6266C179.194 56.0507 179.134 29.4814 179.001 27.8154C178.388 20.0385 177.055 14.8073 174.343 9.27623C172.117 4.75139 169.645 1.37276 166.053 -2.08585C159.642 -8.21004 151.805 -11.9352 142.469 -13.2813C137.944 -13.9344 137.045 -14.1276 113.894 -14.1676H82.3667V-14.1876Z" fill="url(#paint0_radial_5847_5076)"/>
<path d="M82.3667 -14.1876C41.9298 -14.1876 30.1012 -14.1476 27.8021 -13.9544C19.5055 -13.2613 14.3409 -11.9552 8.7165 -9.15632C4.37825 -7.00386 0.959629 -4.50487 -2.41234 -1.00628C-8.55652 5.37781 -12.2817 13.228 -13.6278 22.5575C-14.2808 27.089 -14.4741 28.0087 -14.5141 51.1526C-14.5274 58.8695 -14.5141 69.0188 -14.5141 82.6332C-14.5141 123.05 -14.4675 134.865 -14.2742 137.165C-13.6011 145.241 -12.335 150.326 -9.65608 155.884C-4.53148 166.526 5.25789 174.509 16.7866 177.495C20.7783 178.521 25.1899 179.088 30.8476 179.361C33.2466 179.467 57.6967 179.541 82.1602 179.541C106.624 179.541 131.087 179.514 133.426 179.394C139.983 179.088 143.789 178.574 148 177.488C159.609 174.496 169.218 166.626 174.443 155.837C177.075 150.413 178.408 145.135 179.008 137.484C179.141 135.818 179.194 109.203 179.194 82.6266C179.194 56.0507 179.134 29.4814 179.001 27.8154C178.388 20.0385 177.055 14.8073 174.343 9.27623C172.117 4.75139 169.645 1.37276 166.053 -2.08585C159.642 -8.21004 151.805 -11.9352 142.469 -13.2813C137.944 -13.9344 137.045 -14.1276 113.894 -14.1676H82.3667V-14.1876Z" fill="url(#paint1_radial_5847_5076)"/>
<path d="M82.3667 -14.1876C41.9298 -14.1876 30.1012 -14.1476 27.8021 -13.9544C19.5055 -13.2613 14.3409 -11.9552 8.7165 -9.15632C4.37825 -7.00386 0.959629 -4.50487 -2.41234 -1.00628C-8.55652 5.37781 -12.2817 13.228 -13.6278 22.5575C-14.2808 27.089 -14.4741 28.0087 -14.5141 51.1526C-14.5274 58.8695 -14.5141 69.0188 -14.5141 82.6332C-14.5141 123.05 -14.4675 134.865 -14.2742 137.165C-13.6011 145.241 -12.335 150.326 -9.65608 155.884C-4.53148 166.526 5.25789 174.509 16.7866 177.495C20.7783 178.521 25.1899 179.088 30.8476 179.361C33.2466 179.467 57.6967 179.541 82.1602 179.541C106.624 179.541 131.087 179.514 133.426 179.394C139.983 179.088 143.789 178.574 148 177.488C159.609 174.496 169.218 166.626 174.443 155.837C177.075 150.413 178.408 145.135 179.008 137.484C179.141 135.818 179.194 109.203 179.194 82.6266C179.194 56.0507 179.134 29.4814 179.001 27.8154C178.388 20.0385 177.055 14.8073 174.343 9.27623C172.117 4.75139 169.645 1.37276 166.053 -2.08585C159.642 -8.21004 151.805 -11.9352 142.469 -13.2813C137.944 -13.9344 137.045 -14.1276 113.894 -14.1676H82.3667V-14.1876Z" fill="url(#paint2_radial_5847_5076)"/>
<path d="M82.3667 -14.1876C41.9298 -14.1876 30.1012 -14.1476 27.8021 -13.9544C19.5055 -13.2613 14.3409 -11.9552 8.7165 -9.15632C4.37825 -7.00386 0.959629 -4.50487 -2.41234 -1.00628C-8.55652 5.37781 -12.2817 13.228 -13.6278 22.5575C-14.2808 27.089 -14.4741 28.0087 -14.5141 51.1526C-14.5274 58.8695 -14.5141 69.0188 -14.5141 82.6332C-14.5141 123.05 -14.4675 134.865 -14.2742 137.165C-13.6011 145.241 -12.335 150.326 -9.65608 155.884C-4.53148 166.526 5.25789 174.509 16.7866 177.495C20.7783 178.521 25.1899 179.088 30.8476 179.361C33.2466 179.467 57.6967 179.541 82.1602 179.541C106.624 179.541 131.087 179.514 133.426 179.394C139.983 179.088 143.789 178.574 148 177.488C159.609 174.496 169.218 166.626 174.443 155.837C177.075 150.413 178.408 145.135 179.008 137.484C179.141 135.818 179.194 109.203 179.194 82.6266C179.194 56.0507 179.134 29.4814 179.001 27.8154C178.388 20.0385 177.055 14.8073 174.343 9.27623C172.117 4.75139 169.645 1.37276 166.053 -2.08585C159.642 -8.21004 151.805 -11.9352 142.469 -13.2813C137.944 -13.9344 137.045 -14.1276 113.894 -14.1676H82.3667V-14.1876Z" fill="url(#paint3_radial_5847_5076)"/>
<path d="M82.1406 39.9999C70.442 39.9999 68.9771 40.048 64.3829 40.261C59.7956 40.474 56.6664 41.1954 53.9291 42.2603C51.0956 43.3596 48.6954 44.8299 46.302 47.2209C43.9087 49.6119 42.4369 52.0098 41.3296 54.8336C40.2636 57.5681 39.5346 60.6943 39.3282 65.2702C39.1219 69.8598 39.0669 71.3232 39.0669 82.9964C39.0669 94.6697 39.1219 96.1331 39.3282 100.723C39.5414 105.299 40.2636 108.425 41.3296 111.159C42.43 113.99 43.9018 116.388 46.2951 118.779C48.6885 121.17 51.0888 122.64 53.9223 123.739C56.6595 124.804 59.7956 125.526 64.376 125.739C68.9702 125.945 70.4351 126 82.1337 126C93.8323 126 95.2972 125.952 99.8914 125.739C104.479 125.526 107.608 124.804 110.352 123.739C113.186 122.64 115.586 121.17 117.979 118.779C120.372 116.388 121.844 113.99 122.952 111.166C124.011 108.432 124.74 105.305 124.953 100.73C125.159 96.14 125.214 94.6834 125.214 83.0033C125.214 71.3232 125.159 69.8598 124.953 65.277C124.74 60.7012 124.011 57.575 122.952 54.8405C121.851 52.0098 120.379 49.6119 117.979 47.2209C115.586 44.8299 113.186 43.3596 110.352 42.2603C107.608 41.1954 104.472 40.474 99.8914 40.261C95.2972 40.0548 93.8323 39.9999 82.1337 39.9999H82.1475H82.1406ZM78.2754 47.75C79.424 47.75 80.7032 47.75 82.1406 47.75C93.6397 47.75 95.0015 47.7912 99.5475 47.9973C103.75 48.1897 106.026 48.8905 107.546 49.4814C109.554 50.2578 110.992 51.1922 112.498 52.6968C114.004 54.2015 114.939 55.6375 115.723 57.6437C116.315 59.1553 117.016 61.4295 117.209 65.6274C117.415 70.1621 117.463 71.5224 117.463 82.9964C117.463 94.4704 117.415 95.8308 117.209 100.365C117.016 104.557 116.315 106.831 115.723 108.349C114.946 110.355 114.011 111.784 112.498 113.289C110.992 114.794 109.561 115.728 107.546 116.505C106.033 117.096 103.75 117.796 99.5475 117.989C95.0083 118.195 93.6397 118.243 82.1406 118.243C70.6414 118.243 69.2797 118.195 64.7337 117.989C60.5315 117.796 58.2551 117.096 56.7351 116.505C54.7269 115.728 53.2895 114.794 51.7834 113.289C50.2772 111.784 49.3418 110.355 48.5578 108.349C47.9663 106.838 47.2649 104.563 47.0723 100.365C46.866 95.8308 46.8247 94.4704 46.8247 82.9896C46.8247 71.5087 46.866 70.1552 47.0723 65.6206C47.2649 61.4295 47.9663 59.1553 48.5578 57.6369C49.3418 55.6306 50.2703 54.1947 51.7834 52.69C53.2895 51.1853 54.7269 50.2509 56.7351 49.4745C58.2551 48.8836 60.5315 48.1828 64.7337 47.9904C68.7088 47.8118 70.2494 47.7568 78.2754 47.75ZM105.132 54.8886C102.278 54.8886 99.9602 57.1971 99.9602 60.0485C99.9602 62.8998 102.278 65.2083 105.132 65.2083C107.986 65.2083 110.297 62.8998 110.297 60.0485C110.297 57.1971 107.979 54.8886 105.132 54.8886ZM82.1406 60.9142C69.9262 60.9142 60.0226 70.801 60.0226 82.9964C60.0226 95.1919 69.9262 105.072 82.1406 105.072C94.355 105.072 104.259 95.1919 104.259 82.9964C104.259 70.801 94.355 60.9142 82.1406 60.9142ZM82.1406 68.6643C90.0703 68.6643 96.5008 75.0814 96.5008 82.9964C96.5008 90.9114 90.0703 97.3286 82.1406 97.3286C74.2108 97.3286 67.7804 90.9114 67.7804 82.9964C67.7804 75.0814 74.2108 68.6643 82.1406 68.6643Z" fill="white"/>
</g>
<defs>
<radialGradient id="paint0_radial_5847_5076" cx="0" cy="0" r="1" gradientUnits="userSpaceOnUse" gradientTransform="translate(172.633 77.9715) rotate(164.25) scale(124.091 89.4043)">
<stop stop-color="#FF005F"/>
<stop offset="1" stop-color="#FC01D8"/>
</radialGradient>
<radialGradient id="paint1_radial_5847_5076" cx="0" cy="0" r="1" gradientUnits="userSpaceOnUse" gradientTransform="translate(43.1603 194.564) rotate(-90) scale(155.026 164.479)">
<stop stop-color="#FFCC00"/>
<stop offset="0.12" stop-color="#FFCC00"/>
<stop offset="0.57" stop-color="#FE4A05"/>
<stop offset="0.69" stop-color="#FF0F3F"/>
<stop offset="1" stop-color="#FE0657" stop-opacity="0"/>
</radialGradient>
<radialGradient id="paint2_radial_5847_5076" cx="0" cy="0" r="1" gradientUnits="userSpaceOnUse" gradientTransform="translate(90.286 177.645) rotate(-59.87) scale(64.1072 83.4567)">
<stop stop-color="#FFCC00"/>
<stop offset="1" stop-color="#FFCC00" stop-opacity="0"/>
</radialGradient>
<radialGradient id="paint3_radial_5847_5076" cx="0" cy="0" r="1" gradientUnits="userSpaceOnUse" gradientTransform="translate(15.3724 -12.0932) rotate(164.27) scale(122.719 41.8076)">
<stop stop-color="#780CFF"/>
<stop offset="1" stop-color="#820BFF" stop-opacity="0"/>
</radialGradient>
</defs>
</svg>
