<?xml version="1.0" encoding="UTF-8"?> <svg xmlns="http://www.w3.org/2000/svg" width="24" height="24" viewBox="0 0 24 24" fill="none"><path d="M3 13C3 15.3869 3.94821 17.6761 5.63604 19.364C7.32387 21.0518 9.61305 22 12 22C12 19.6131 11.0518 17.3239 9.36396 15.636C7.67613 13.9482 5.38695 13 3 13ZM5.44 15.44C7.35 16.15 8.85 17.65 9.56 19.56C8.61767 19.2094 7.76191 18.66 7.05096 17.949C6.34002 17.2381 5.79057 16.3823 5.44 15.44ZM12 22C14.3869 22 16.6761 21.0518 18.364 19.364C20.0518 17.6761 21 15.3869 21 13C18.6131 13 16.3239 13.9482 14.636 15.636C12.9482 17.3239 12 19.6131 12 22ZM14.42 19.57C14.7629 18.615 15.3128 17.7478 16.0303 17.0303C16.7478 16.3128 17.615 15.7629 18.57 15.42C18.2181 16.3699 17.6651 17.2325 16.9488 17.9488C16.2325 18.6651 15.3699 19.2181 14.42 19.57ZM12 14C13.5913 14 15.1174 13.3679 16.2426 12.2426C17.3679 11.1174 18 9.5913 18 8V3C17.2619 2.99375 16.5293 3.12604 15.84 3.39C15.29 3.62 14.8 3.96 14.39 4.39L12 2L9.61 4.39C9.2 3.96 8.71 3.62 8.16 3.39C7.47073 3.12604 6.73806 2.99375 6 3V8C6 9.5913 6.63214 11.1174 7.75736 12.2426C8.88258 13.3679 10.4087 14 12 14ZM8 5.61L9.57 7.26L12 4.83L14.43 7.26L16 5.61V8C16 9.06087 15.5786 10.0783 14.8284 10.8284C14.0783 11.5786 13.0609 12 12 12C10.9391 12 9.92172 11.5786 9.17157 10.8284C8.42143 10.0783 8 9.06087 8 8V5.61Z" fill="#E9BE98"></path></svg> 