<?xml version="1.0" encoding="UTF-8"?> <svg xmlns="http://www.w3.org/2000/svg" width="39" height="39" viewBox="0 0 39 39" fill="none"><path fill-rule="evenodd" clip-rule="evenodd" d="M15.5866 5.20041C15.331 5.43166 15.0625 5.64814 14.7822 5.84878C14.298 6.17378 13.7536 6.39803 13.1816 6.51178C12.933 6.56053 12.673 6.58166 12.1546 6.62228C10.853 6.72628 10.2013 6.77828 9.65859 6.97003C9.038 7.18915 8.47435 7.54442 8.00897 8.00979C7.5436 8.47516 7.18833 9.03882 6.96922 9.65941C6.77747 10.2022 6.72547 10.8538 6.62147 12.1554C6.60374 12.4995 6.56685 12.8424 6.51097 13.1824C6.39722 13.7544 6.17297 14.2988 5.84797 14.783C5.70659 14.9943 5.53759 15.1925 5.19959 15.5874C4.35297 16.5819 3.92884 17.0792 3.68022 17.5992C3.10659 18.8017 3.10659 20.1992 3.68022 21.4017C3.92884 21.9217 4.35297 22.4189 5.19959 23.4134C5.53759 23.8083 5.70659 24.0065 5.84797 24.2178C6.17297 24.702 6.39722 25.2464 6.51097 25.8184C6.55972 26.067 6.58084 26.327 6.62147 26.8454C6.72547 28.147 6.77747 28.7987 6.96922 29.3414C7.18833 29.962 7.5436 30.5257 8.00897 30.991C8.47435 31.4564 9.038 31.8117 9.65859 32.0308C10.2013 32.2225 10.853 32.2745 12.1546 32.3785C12.673 32.4192 12.933 32.4403 13.1816 32.489C13.7536 32.6028 14.298 32.8287 14.7822 33.152C14.9935 33.2934 15.1917 33.4624 15.5866 33.8004C16.5811 34.647 17.0783 35.0712 17.5983 35.3198C18.8008 35.8934 20.1983 35.8934 21.4008 35.3198C21.9208 35.0712 22.4181 34.647 23.4126 33.8004C23.8075 33.4624 24.0057 33.2934 24.217 33.152C24.7012 32.827 25.2456 32.6028 25.8176 32.489C26.0662 32.4403 26.3262 32.4192 26.8446 32.3785C28.1462 32.2745 28.7978 32.2225 29.3406 32.0308C29.9612 31.8117 30.5248 31.4564 30.9902 30.991C31.4556 30.5257 31.8109 29.962 32.03 29.3414C32.2217 28.7987 32.2737 28.147 32.3777 26.8454C32.4183 26.327 32.4395 26.067 32.4882 25.8184C32.602 25.2464 32.8278 24.702 33.1512 24.2178C33.2926 24.0065 33.4616 23.8083 33.7996 23.4134C34.6462 22.4189 35.0703 21.9217 35.319 21.4017C35.8926 20.1992 35.8926 18.8017 35.319 17.5992C35.0703 17.0792 34.6462 16.5819 33.7996 15.5874C33.5683 15.3318 33.3519 15.0633 33.1512 14.783C32.8265 14.2986 32.6012 13.7546 32.4882 13.1824C32.4324 12.8424 32.3955 12.4995 32.3777 12.1554C32.2737 10.8538 32.2217 10.2022 32.03 9.65941C31.8109 9.03882 31.4556 8.47516 30.9902 8.00979C30.5248 7.54442 29.9612 7.18915 29.3406 6.97003C28.7978 6.77828 28.1462 6.72628 26.8446 6.62228C26.5005 6.60456 26.1576 6.56767 25.8176 6.51178C25.2455 6.39883 24.7014 6.17348 24.217 5.84878C23.9371 5.64771 23.6685 5.43126 23.4126 5.20041C22.4181 4.35378 21.9208 3.92966 21.4008 3.68104C20.8072 3.39728 20.1576 3.25 19.4996 3.25C18.8416 3.25 18.192 3.39728 17.5983 3.68104C17.0783 3.92966 16.5811 4.35378 15.5866 5.20041ZM25.725 13.2767C25.9725 13.5246 26.1114 13.8607 26.1114 14.211C26.1114 14.5614 25.9725 14.8974 25.725 15.1454L15.1446 25.7274C15.024 25.8594 14.878 25.9655 14.7153 26.0394C14.5526 26.1134 14.3766 26.1536 14.1979 26.1576C14.0192 26.1616 13.8416 26.1294 13.6757 26.0629C13.5098 25.9963 13.3591 25.8969 13.2327 25.7705C13.1064 25.6441 13.0069 25.4935 12.9404 25.3276C12.8738 25.1617 12.8416 24.9841 12.8456 24.8054C12.8497 24.6267 12.8899 24.4507 12.9638 24.288C13.0378 24.1253 13.1439 23.9792 13.2758 23.8587L23.8546 13.2783C24.1026 13.0308 24.4386 12.8918 24.789 12.8918C25.1393 12.8918 25.4754 13.0308 25.7233 13.2783M25.6697 23.9107C25.6697 24.3783 25.484 24.8267 25.1533 25.1574C24.8227 25.488 24.3742 25.6738 23.9066 25.6738C23.439 25.6738 22.9905 25.488 22.6599 25.1574C22.3292 24.8267 22.1435 24.3783 22.1435 23.9107C22.1435 23.443 22.3292 22.9946 22.6599 22.6639C22.9905 22.3333 23.439 22.1475 23.9066 22.1475C24.3742 22.1475 24.8227 22.3333 25.1533 22.6639C25.484 22.9946 25.6697 23.443 25.6697 23.9107ZM15.091 16.8582C15.5586 16.8582 16.007 16.6724 16.3377 16.3418C16.6683 16.0111 16.8541 15.5626 16.8541 15.095C16.8541 14.6274 16.6683 14.179 16.3377 13.8483C16.007 13.5177 15.5586 13.3319 15.091 13.3319C14.6234 13.3319 14.1749 13.5177 13.8443 13.8483C13.5136 14.179 13.3278 14.6274 13.3278 15.095C13.3278 15.5626 13.5136 16.0111 13.8443 16.3418C14.1749 16.6724 14.6234 16.8582 15.091 16.8582Z" fill="#E9BE98"></path></svg> 