<svg width="165" height="166" viewBox="0 0 165 166" fill="none" xmlns="http://www.w3.org/2000/svg">
<path d="M82.5 0.375488C128.068 0.375488 165 37.3139 165 82.8755C165 128.444 128.062 165.375 82.5 165.375C36.9318 165.375 0 128.437 0 82.8755C0 37.3073 36.9384 0.375488 82.5 0.375488Z" fill="#25A2DF"/>
<path fill-rule="evenodd" clip-rule="evenodd" d="M43.0229 82.2958C63.9477 73.2061 77.8821 67.1686 84.8726 64.2364C104.785 55.9265 108.97 54.4937 111.662 54.4337C112.262 54.4337 113.574 54.5537 114.474 55.2734C115.194 55.8731 115.374 56.6462 115.494 57.2459C115.614 57.8457 115.733 59.0985 115.614 60.0581C114.534 71.4202 109.876 98.9824 107.483 111.657C106.464 117.035 104.491 118.834 102.579 119.014C98.3938 119.374 95.2217 116.262 91.2167 113.63C84.8792 109.505 81.354 106.933 75.1899 102.868C68.0728 98.2027 72.6775 95.6304 76.7425 91.4454C77.8154 90.3726 96.1747 73.626 96.5346 72.1332C96.5946 71.9533 96.5945 71.2336 96.1747 70.8804C95.7549 70.5206 95.1551 70.6405 94.682 70.7605C94.0223 70.8804 83.9796 77.5777 64.4275 90.7924C61.5554 92.7649 58.9897 93.7245 56.6573 93.6646C54.085 93.6046 49.1804 92.2318 45.4752 91.0323C40.9904 89.5995 37.4052 88.8198 37.705 86.3075C37.885 84.9947 39.6776 83.6752 43.0295 82.3025L43.0229 82.2958Z" fill="white"/>
</svg>
